<svg xmlns="http://www.w3.org/2000/svg" viewBox="0 0 1160 772">
    <defs>
        <style>
            .cls-1{isolation:isolate;}.cls-2{fill:#9ebac6;}.cls-3{opacity:0.13;mix-blend-mode:screen;fill:url(#radial-gradient);}.cls-4{opacity:0.17;}.cls-5{opacity:0.12;}.cls-6{fill:#f2f2f2;}.cls-7{fill:#fff;}.cls-8{fill:#f7d77f;}.cls-9{fill:#004686;}.cls-10{fill:#e6e6e6;}.cls-11{opacity:0.28;}.cls-12{fill:#153e49;}.cls-13{fill:#113542;}.cls-14{fill:#1a1a1a;}.cls-15{fill:#5d7a7f;}.cls-16{fill:#dae7e8;}.cls-17{fill:#688689;}.cls-18{fill:#8cad81;}
        </style>
        <radialGradient id="radial-gradient" cx="391.73" cy="346.78" r="328.72" gradientUnits="userSpaceOnUse">
            <stop offset="0" stop-color="#fff"/>
            <stop offset="0.38" stop-color="#9a9a9a"/>
            <stop offset="0.81" stop-color="#2c2c2c"/>
            <stop offset="1"/>
        </radialGradient>
    </defs>
    <g class="cls-1">
        <g id="Background">
            <rect class="cls-2" width="1160" height="772"/>
            <circle class="cls-3" cx="391.73" cy="346.78" r="328.72"/>
        </g>
        <g id="object">
            <path class="cls-4"
                  d="M766.46,176.54l-.24-.29H448.49l.72.78H446.3a33.46,33.46,0,0,0-33.46,33.46V548.7h-28l-.24.29a44.63,44.63,0,0,0,0,57.14l.24.29H702.94A36.42,36.42,0,0,0,739.36,570V234h26.86l.24-.28A44.65,44.65,0,0,0,766.46,176.54Z"
                  transform="translate(0)"/>
            <ellipse class="cls-5" cx="552.47" cy="705.4" rx="187.38" ry="23.05"/>
            <path class="cls-6"
                  d="M438.08,225.7H755.81l.24-.29a44.63,44.63,0,0,0,0-57.14l-.24-.29H438.08l1.58,1.69a40,40,0,0,1-1.3,55.75Z"
                  transform="translate(0)"/>
            <path class="cls-7"
                  d="M692.54,598.14H402.44V202.21a33.44,33.44,0,0,1,33.45-33.45H719.7s29.46-1.75,28.86,0c-20.66.4-19.6,57.72-19.6,57.72V561.72A36.43,36.43,0,0,1,692.54,598.14Z"
                  transform="translate(0)"/>
            <path class="cls-6"
                  d="M692.12,598.14H374.39l-.24-.29a44.63,44.63,0,0,1,0-57.14l.24-.29H692.12l-1.58,1.69c-14.74,15.87-17.24,42.94,1.58,56Z"
                  transform="translate(0)"/>
            <rect class="cls-8" x="473.02" y="232.78" width="197.38" height="16.61"/>
            <rect class="cls-9" x="609.61" y="515.02" width="88.25" height="5.41"/>
            <rect class="cls-10" x="445.55" y="280.6" width="252.32" height="6.75"/>
            <rect class="cls-10" x="445.55" y="313.72" width="252.32" height="6.75"/>
            <rect class="cls-10" x="445.55" y="346.84" width="252.32" height="6.75"/>
            <rect class="cls-10" x="445.55" y="379.97" width="252.32" height="6.75"/>
            <rect class="cls-10" x="445.55" y="413.09" width="252.32" height="6.75"/>
            <rect class="cls-10" x="445.55" y="479.34" width="252.32" height="6.75"/>
            <rect class="cls-10" x="445.55" y="446.21" width="252.32" height="6.75"/>
            <path class="cls-11"
                  d="M883.27,257.85l-2.9-1.79-.78-.47-1.4-.87,4.53-7.36a1,1,0,0,0-.33-1.35l-24.92-15.32a1,1,0,0,0-1.35.33l-4.53,7.36-1.66-1a.8.8,0,0,0-1.09.26l-1.94,3.16a.79.79,0,0,0,.26,1.09l1.67,1-39.05,63.55a1,1,0,0,0,.32,1.35l2.27,1.39L727.18,447.79l-1.76-1.09a1.36,1.36,0,0,0-1.87.45v0A1.35,1.35,0,0,0,724,449l2,1.2-.45,1L723.41,450a1.36,1.36,0,0,0-1.87.45v0a1.36,1.36,0,0,0,.44,1.86l2.4,1.47-7.92,17.7h0L707.72,491l-4.81,3-4.37,18.56L701,514l15-12.29.8-5.22L731,480.4h0l0,0,12.89-14.59,2.13,1.31a1.36,1.36,0,0,0,1.87-.45v0a1.35,1.35,0,0,0-.44-1.86l-1.73-1.06.74-.84,1.56,1a1.36,1.36,0,0,0,1.87-.44v0a1.36,1.36,0,0,0-.44-1.86l-1.3-.8,81.26-132.22,3.93-6.39,1.65,1a1,1,0,0,0,1.35-.32l39-63.54.73.45a.78.78,0,0,1,.26,1.08l-25.66,41.76a.78.78,0,0,0,.26,1.08l3,1.85a.78.78,0,0,0,1.08-.25l28.43-46.27A.77.77,0,0,0,883.27,257.85Z"
                  transform="translate(0)"/>
            <polygon class="cls-12"
                     points="724.06 476.68 709.43 467.91 719.41 444.94 814.41 286.46 835.55 299.13 740.62 457.5 724.06 476.68"/>
            <rect class="cls-13" x="791.83" y="256.31" width="90.48" height="31.22" rx="0.98"
                  transform="translate(173.47 850.06) rotate(-59.06)"/>
            <path class="cls-14"
                  d="M871,250.71l-.78-.47-29.87-17.9a.78.78,0,0,0-1.08.27l-1.9,3.18a.78.78,0,0,0,.27,1.08l29.18,17.5a.79.79,0,0,1,.28,1.08l-25.2,42a.78.78,0,0,0,.27,1.08l3,1.82a.79.79,0,0,0,1.08-.27l27.92-46.58a.79.79,0,0,0-.27-1.08Z"
                  transform="translate(0)"/>
            <polygon class="cls-15" points="710 492.94 700.91 487.5 719.41 444.94 740.55 457.61 710 492.94"/>
            <polygon class="cls-16"
                     points="710 492.94 700.91 487.5 696.14 490.57 691.98 509.18 694.4 510.63 709.26 498.17 710 492.94"/>
            <rect class="cls-17" x="728.16" y="436.01" width="2.74" height="30.95" rx="1.36"
                  transform="translate(-32.79 845.07) rotate(-59.06)"/>
            <rect class="cls-17" x="726.19" y="439.3" width="2.74" height="30.95" rx="1.36"
                  transform="translate(-36.57 844.98) rotate(-59.06)"/>
            <path class="cls-12" d="M701.87,499.62a2,2,0,1,1-.68-2.72A2,2,0,0,1,701.87,499.62Z"
                  transform="translate(0)"/>
            <rect class="cls-12" x="690.34" y="504.23" width="12.33" height="0.96"
                  transform="translate(-94.5 842.58) rotate(-59.06)"/>
            <polygon class="cls-11" points="803.56 304.57 824.69 317.24 813.01 336.74 803.56 304.57"/>
            <rect class="cls-18" x="473.02" y="232.78" width="27.85" height="16.61"/>
        </g>
    </g>
</svg>