<svg xmlns="http://www.w3.org/2000/svg" viewBox="0 0 500 500">
    <defs>
        <style>
            .cls-1{isolation:isolate;}.cls-2{fill:#f3f4f6;}.cls-3{fill:#dce6ef;}.cls-4{fill:#6aa5fe;}.cls-10,.cls-14,.cls-15,.cls-16,.cls-5,.cls-7,.cls-9{fill:none;}.cls-14,.cls-5{stroke:#1a55b5;}.cls-10,.cls-5,.cls-7,.cls-9{stroke-linecap:round;stroke-linejoin:round;}.cls-5,.cls-7{stroke-width:0.87px;}.cls-6{fill:#ffc957;}.cls-10,.cls-7{stroke:#6aa5fe;}.cls-8{fill:#1a55b5;}.cls-9{stroke:#2a294f;stroke-width:0.78px;}.cls-11{fill:#527ee9;}.cls-12{fill:#2c6bc6;}.cls-13{fill:#cde1f9;}.cls-13,.cls-22,.cls-25,.cls-26{mix-blend-mode:multiply;}.cls-14,.cls-15,.cls-16{stroke-miterlimit:10;}.cls-15{stroke:#f3f4f6;}.cls-15,.cls-16{stroke-width:4px;}.cls-16{stroke:#ff746f;}.cls-17{fill:#ff746f;}.cls-18{fill:#2a294f;}.cls-19{fill:#fe9280;}.cls-20{fill:#e86767;}.cls-21{fill:#fff;}.cls-22,.cls-25,.cls-26{fill:#777470;}.cls-22{opacity:0.2;}.cls-23{fill:#fff4dd;}.cls-24{fill:#d3eaf5;}.cls-25{opacity:0.05;}.cls-26{opacity:0.15;}
        </style>
    </defs>
    <g class="cls-1">
        <g id="BACKGROUND">
            <rect class="cls-2" width="500" height="500"/>
        </g>
        <g id="OBJECTS">
            <path class="cls-3"
                  d="M459.66,351.49c-3.67-9.42-6.41-19.42-9.4-30-2-7.11-5.27-15.07-12.31-17.32-6.86-2.18-14.24,2.34-18.46,8.17s-6.34,12.9-9.94,19.12c-6.54,11.28-18.12,16-27.69,6.09C368.2,323.4,362,304.09,353.38,286.81c-6.3-12.54-11.56-27.23-19.49-38.79-12.09-17.63-28.66-32.66-50.71-32.66-14,2.11-26.28,14.49-34.61,30s-13.2,33.86-17.34,52.21c-7.53,33.36-13,67.51-18.56,101.61l278.12-3.25c-1.11,0-7.93-9.1-9.24-10.36C470.88,375.2,464.47,363.84,459.66,351.49Z"/>
            <path class="cls-4"
                  d="M406.87,367.39c-.55,10.81-12.31,29.71-23.12,29.17s-16.58-20.33-16-31.14,12-64.92,22.87-64.37S407.41,356.58,406.87,367.39Z"/>
            <line class="cls-5" x1="390.07" y1="308.08" x2="384.61" y2="395.69"/>
            <path class="cls-6"
                  d="M382.12,365.14a75.59,75.59,0,0,0-5.47,17c-.57,3-.93,6.25.42,9,1.49,3,4.77,4.73,8.06,5.27,8,1.32,16.08-3.6,20.79-10.24s6.75-14.77,8.62-22.69c1.47-6.24,2.92-12.58,5.7-18.39,1.19-2.49,8.17-12.12,4.87-14.61-4.52-3.55-17.58.31-25.95,9.45A97.28,97.28,0,0,0,382.12,365.14Z"/>
            <path class="cls-7" d="M385.13,396.38s9.71-37.77,33.13-59.43"/>
            <path class="cls-8"
                  d="M439,356.23a9.54,9.54,0,0,1-3.8,3.3c-1.74,1-3.6,1.84-5.39,2.68a62.32,62.32,0,0,0-6.88,3.56,22.43,22.43,0,0,0-4.22,3.36,53.12,53.12,0,0,1,6.69-11.38c3.42-4.4,6.93-6.63,10.44-6.63H436a3.92,3.92,0,0,1,2.51.8C439.73,352.94,439.69,354.91,439,356.23Z"/>
            <path class="cls-8"
                  d="M442.87,380.65A9.57,9.57,0,0,1,438,382c-2,.14-4,.12-6,.11a62.92,62.92,0,0,0-7.74.27,23.45,23.45,0,0,0-5.25,1.24,53.67,53.67,0,0,1,10.91-7.43c5-2.51,9.11-3,12.28-1.52l.22.1a4,4,0,0,1,1.92,1.8A3.56,3.56,0,0,1,442.87,380.65Z"/>
            <path class="cls-8"
                  d="M433.62,392.67a6.49,6.49,0,0,1-3-1.6c-1.06-.86-2.07-1.83-3.05-2.76a43.11,43.11,0,0,0-4-3.5,16,16,0,0,0-3.19-1.85,36.9,36.9,0,0,1,8.91,1.43c3.65,1.08,5.94,2.76,6.82,5l.06.16a2.72,2.72,0,0,1,.11,1.8A2.44,2.44,0,0,1,433.62,392.67Z"/>
            <path class="cls-9" d="M407.32,396.6s.11-23.12,28.33-42.74"/>
            <path class="cls-9" d="M407.32,396.6S416,378,439.48,378"/>
            <path class="cls-9" d="M420.1,383.19s4.55-.33,14,6.84"/>
            <path class="cls-3"
                  d="M164.8,396.8c-6.52-24.66-13.08-49.33-20.75-73.22-4.33-13.46-9.1-26.88-15.73-37.65s-15.41-18.72-24.22-18.67c-13.59,2.63-22.35,16.05-28.1,30.9-3.77,9.74-5.59,21.54-8.26,31.84-3.67,14.18-5.6,29.6-12.65,42-4.94,8.69-12.54,6.47-17.65-1.33-2.83-4.31-4.82-9.43-8-13.36s-8.15-6.49-12.16-4-5.36,9-5.92,14.65c-.82,8.39-1.54,16.32-2.89,23.93-.3,1.65-.62,3.29-1,4.92Z"/>
            <path class="cls-6"
                  d="M106.47,362.76c-4.07-4.7-9.23-8.76-10.86-14.69-1.19-4.34-.25-8.93.21-13.4s.3-9.41-2.59-12.85c-2.38-2.84-6.15-4.07-9.77-4.85s-7.4-1.27-10.61-3.11c-5.22-3-4.18-8.08-7-12.54-3.14-5-10.45-11.4-16.72-8.07-6.64,3.52-5.59,14.21-1.17,18.94,2.93,3.13,6.68,6.13,7.11,10.4.65,6.42-6.71,12.21-4.69,18.34,1.5,4.53,7.2,6.08,10,9.93s2.23,9.14.59,13.56-4.23,8.51-5.25,13.12c-2.09,9.42,5.3,15.93,13.73,18,7.74,1.93,24.44,1,24.44,1a31.94,31.94,0,0,0,15.84-13,16.57,16.57,0,0,0,.9-14.4A24,24,0,0,0,106.47,362.76Z"/>
            <path class="cls-10" d="M56.57,303.41s28.51,44,31.61,92.94"/>
            <path class="cls-4"
                  d="M31.17,362.81a3,3,0,0,1,1.9-.6h.19c2.65,0,5.3,1.68,7.89,5a40.17,40.17,0,0,1,5.06,8.61A17.94,17.94,0,0,0,43,373.28a46.7,46.7,0,0,0-5.21-2.69c-1.35-.63-2.75-1.28-4.07-2a7.17,7.17,0,0,1-2.88-2.5A2.72,2.72,0,0,1,31.17,362.81Z"/>
            <path class="cls-4"
                  d="M26.79,381.46a3,3,0,0,1,1.45-1.36l.17-.08c2.4-1.13,5.52-.75,9.28,1.16a39.89,39.89,0,0,1,8.25,5.61,17.34,17.34,0,0,0-4-.93,46,46,0,0,0-5.85-.21c-1.5,0-3,0-4.55-.09a7.1,7.1,0,0,1-3.67-1A2.69,2.69,0,0,1,26.79,381.46Z"/>
            <path class="cls-4"
                  d="M32.9,392.62a2,2,0,0,1,.09-1.36.56.56,0,0,1,0-.12c.66-1.69,2.39-3,5.16-3.77a27.54,27.54,0,0,1,6.73-1.08,11.93,11.93,0,0,0-2.41,1.4,31.76,31.76,0,0,0-3,2.64c-.74.7-1.5,1.44-2.3,2.09a4.91,4.91,0,0,1-2.31,1.21A1.86,1.86,0,0,1,32.9,392.62Z"/>
            <path class="cls-9" d="M54.78,396.6s-.08-17.48-21.42-32.32"/>
            <path class="cls-9" d="M54.78,396.6s-6.55-14-24.31-14"/>
            <path class="cls-9" d="M45.12,386.46s-3.44-.25-10.63,5.17"/>
            <rect class="cls-4" x="86.13" y="122.55" width="207.06" height="274.05" rx="9.45"/>
            <path class="cls-11"
                  d="M86.13,189.31V387.15a9.46,9.46,0,0,0,9.45,9.45H283.74a9.46,9.46,0,0,0,9.45-9.45v-39Z"/>
            <rect class="cls-2" x="98.16" y="135.19" width="183" height="248.76" rx="3.86"/>
            <path class="cls-8"
                  d="M205.36,117.37c0-.26,0-.51,0-.77a15.74,15.74,0,0,0-31.48,0c0,.26,0,.51,0,.77H150.83v24h77.66v-24Z"/>
            <polygon class="cls-12" points="150.83 117.37 150.83 141.36 228.49 141.36 150.83 117.37"/>
            <circle class="cls-11" cx="189.66" cy="116.6" r="8.84" transform="translate(-30.26 81.95) rotate(-22.63)"/>
            <path class="cls-4" d="M183.41,110.35a8.84,8.84,0,0,0,12.5,12.5Z"/>
            <rect class="cls-13" x="150.83" y="141.36" width="77.66" height="1.65"/>
            <rect class="cls-14" x="119.31" y="174.58" width="29.45" height="29.45"/>
            <polyline class="cls-15" points="127.93 190.81 136.93 197.89 155.25 180.24"/>
            <polyline class="cls-16" points="125.93 188.81 134.93 195.89 153.25 178.24"/>
            <path class="cls-4"
                  d="M258.88,182.94h-96a1.13,1.13,0,0,1-1.13-1.13h0a1.13,1.13,0,0,1,1.13-1.14h96a1.14,1.14,0,0,1,1.13,1.14h0A1.14,1.14,0,0,1,258.88,182.94Z"/>
            <path class="cls-4"
                  d="M258.88,187.94h-96a1.13,1.13,0,0,1-1.13-1.13h0a1.13,1.13,0,0,1,1.13-1.14h96a1.14,1.14,0,0,1,1.13,1.14h0A1.14,1.14,0,0,1,258.88,187.94Z"/>
            <path class="cls-4"
                  d="M258.88,192.94h-96a1.13,1.13,0,0,1-1.13-1.13h0a1.13,1.13,0,0,1,1.13-1.14h96a1.14,1.14,0,0,1,1.13,1.14h0A1.14,1.14,0,0,1,258.88,192.94Z"/>
            <path class="cls-4"
                  d="M258.88,197.94h-96a1.12,1.12,0,0,1-1.13-1.13h0a1.12,1.12,0,0,1,1.13-1.13h96a1.13,1.13,0,0,1,1.13,1.13h0A1.13,1.13,0,0,1,258.88,197.94Z"/>
            <rect class="cls-14" x="119.31" y="222" width="29.45" height="29.45"/>
            <polyline class="cls-15" points="127.93 238.23 136.93 245.31 155.25 227.66"/>
            <polyline class="cls-16" points="125.93 236.23 134.93 243.31 153.25 225.66"/>
            <path class="cls-4"
                  d="M258.88,230.36h-96a1.13,1.13,0,0,1-1.13-1.13h0a1.13,1.13,0,0,1,1.13-1.14h96a1.14,1.14,0,0,1,1.13,1.14h0A1.14,1.14,0,0,1,258.88,230.36Z"/>
            <path class="cls-4"
                  d="M258.88,235.36h-96a1.13,1.13,0,0,1-1.13-1.13h0a1.13,1.13,0,0,1,1.13-1.14h96a1.14,1.14,0,0,1,1.13,1.14h0A1.14,1.14,0,0,1,258.88,235.36Z"/>
            <path class="cls-4"
                  d="M258.88,240.36h-96a1.13,1.13,0,0,1-1.13-1.13h0a1.13,1.13,0,0,1,1.13-1.14h96a1.14,1.14,0,0,1,1.13,1.14h0A1.14,1.14,0,0,1,258.88,240.36Z"/>
            <path class="cls-4"
                  d="M258.88,245.36h-96a1.13,1.13,0,0,1-1.13-1.13h0a1.13,1.13,0,0,1,1.13-1.14h96a1.14,1.14,0,0,1,1.13,1.14h0A1.14,1.14,0,0,1,258.88,245.36Z"/>
            <rect class="cls-14" x="119.31" y="269.42" width="29.45" height="29.45"/>
            <polyline class="cls-15" points="127.93 285.65 136.93 292.72 155.25 275.08"/>
            <polyline class="cls-16" points="125.93 283.65 134.93 290.72 153.25 273.08"/>
            <path class="cls-4"
                  d="M258.88,277.78h-96a1.13,1.13,0,0,1-1.13-1.13h0a1.13,1.13,0,0,1,1.13-1.14h96a1.14,1.14,0,0,1,1.13,1.14h0A1.14,1.14,0,0,1,258.88,277.78Z"/>
            <path class="cls-4"
                  d="M258.88,282.78h-96a1.13,1.13,0,0,1-1.13-1.13h0a1.13,1.13,0,0,1,1.13-1.14h96a1.14,1.14,0,0,1,1.13,1.14h0A1.14,1.14,0,0,1,258.88,282.78Z"/>
            <path class="cls-4"
                  d="M258.88,287.78h-96a1.13,1.13,0,0,1-1.13-1.13h0a1.13,1.13,0,0,1,1.13-1.14h96a1.14,1.14,0,0,1,1.13,1.14h0A1.14,1.14,0,0,1,258.88,287.78Z"/>
            <path class="cls-4"
                  d="M258.88,292.78h-96a1.13,1.13,0,0,1-1.13-1.13h0a1.13,1.13,0,0,1,1.13-1.14h96a1.14,1.14,0,0,1,1.13,1.14h0A1.14,1.14,0,0,1,258.88,292.78Z"/>
            <rect class="cls-14" x="119.31" y="316.84" width="29.45" height="29.45"/>
            <polyline class="cls-15" points="127.93 333.07 136.93 340.14 155.25 322.5"/>
            <polyline class="cls-16" points="125.93 331.07 134.93 338.14 153.25 320.5"/>
            <path class="cls-4"
                  d="M258.88,325.2h-96a1.13,1.13,0,0,1-1.13-1.14h0a1.13,1.13,0,0,1,1.13-1.13h96a1.14,1.14,0,0,1,1.13,1.13h0A1.14,1.14,0,0,1,258.88,325.2Z"/>
            <path class="cls-4"
                  d="M258.88,330.2h-96a1.13,1.13,0,0,1-1.13-1.14h0a1.13,1.13,0,0,1,1.13-1.13h96a1.14,1.14,0,0,1,1.13,1.13h0A1.14,1.14,0,0,1,258.88,330.2Z"/>
            <path class="cls-4"
                  d="M258.88,335.2h-96a1.13,1.13,0,0,1-1.13-1.14h0a1.13,1.13,0,0,1,1.13-1.13h96a1.14,1.14,0,0,1,1.13,1.13h0A1.14,1.14,0,0,1,258.88,335.2Z"/>
            <path class="cls-4"
                  d="M258.88,340.2h-96a1.13,1.13,0,0,1-1.13-1.14h0a1.13,1.13,0,0,1,1.13-1.13h96a1.14,1.14,0,0,1,1.13,1.13h0A1.14,1.14,0,0,1,258.88,340.2Z"/>
            <line class="cls-9" x1="8.38" y1="396.59" x2="492.5" y2="396.59"/>
            <rect class="cls-17" x="313.47" y="387.66" width="4.56" height="5.62"/>
            <polygon class="cls-18"
                     points="313.5 392.01 315.89 392.74 318.1 392.01 320.09 396.57 301.65 396.57 308.58 394.29 313.5 392.01"/>
            <polygon class="cls-17" points="361.31 393.28 365.87 393.28 364.17 387.66 359.61 387.66 361.31 393.28"/>
            <polygon class="cls-18"
                     points="365.46 392.01 363.08 392.74 360.86 392.01 358.87 396.57 377.32 396.57 370.38 394.29 365.46 392.01"/>
            <path class="cls-19"
                  d="M303.22,197.6c-.61.47-6.23,3.79-6.23,3.79l-4-5.11,1.18-5.81,8.58.53,1.5,4.34C304.63,196.37,304,197,303.22,197.6Z"/>
            <path class="cls-20" d="M302.77,191l1.29,3.81-3.95,1.59a3.63,3.63,0,0,1-5.05-3.77l.26-2.09Z"/>
            <path class="cls-17"
                  d="M300.83,196.09l3.43.5,1.87-3.22a1.25,1.25,0,0,0-.38-1.72h0A1.26,1.26,0,0,0,304,192Z"/>
            <polygon class="cls-21" points="294.66 209.96 287.59 211.75 285.06 232.22 293.33 232.56 294.66 209.96"/>
            <path class="cls-19"
                  d="M391.17,226.46l-12.36-1.56,2.83-22.46L394,204a11.33,11.33,0,0,1,9.82,12.65h0A11.33,11.33,0,0,1,391.17,226.46Z"/>
            <path class="cls-22"
                  d="M391.81,221.34l-12.35-1.55-.65,5.11,12.36,1.56A11.3,11.3,0,0,0,403.84,214,11.31,11.31,0,0,1,391.81,221.34Z"/>
            <polygon class="cls-6" points="377.31 224.71 246.21 207.8 249.04 185.34 380.14 202.25 377.31 224.71"/>
            <polygon class="cls-23" points="222.85 193.45 246.21 207.8 249.04 185.34 222.85 193.45"/>
            <polygon class="cls-22" points="222.85 193.45 246.21 207.8 246.9 202.31 222.85 193.45"/>
            <polygon class="cls-18" points="230.65 191.03 222.85 193.45 229.81 197.73 230.65 191.03"/>
            <rect class="cls-24" x="378.68" y="202.84" width="10.94" height="22.64"
                  transform="translate(29.76 -46.31) rotate(7.18)"/>
            <rect class="cls-24" x="385.85" y="202.32" width="3.74" height="24.58"
                  transform="translate(29.84 -46.74) rotate(7.17)"/>
            <polygon class="cls-22" points="384.45 225.61 246.21 207.8 246.9 202.31 385.14 220.12 384.45 225.61"/>
            <polygon class="cls-25" points="386.59 208.64 248.35 190.83 249.04 185.34 387.28 203.15 386.59 208.64"/>
            <rect class="cls-26" x="384.78" y="219.32" width="3.74" height="7.51"
                  transform="translate(30.89 -46.55) rotate(7.17)"/>
            <path class="cls-20" d="M342.3,280.44l1.84-4.79,6.24-.51a2,2,0,0,1,2.28,1.55h0a2,2,0,0,1-1.88,2Z"/>
            <path class="cls-17"
                  d="M339.07,275.69l3.23,4.75,6.12-1.26L341.56,269l-1.32.88A4.19,4.19,0,0,0,339.07,275.69Z"/>
            <polygon class="cls-21" points="344.13 274.08 364.92 252.29 353.96 249.74 341.56 269 344.13 274.08"/>
            <path class="cls-21" d="M356.89,251.35a4.75,4.75,0,1,0,2.3-6.31A4.75,4.75,0,0,0,356.89,251.35Z"/>
            <path class="cls-21"
                  d="M358.5,253.25l6.42-6.85-22.43-26.59a5.33,5.33,0,0,0-8-.65h0c-2.31,2.27-2.08,10.31.5,12.28Z"/>
            <rect class="cls-17" x="322.38" y="207.56" width="9.23" height="14.64"
                  transform="matrix(-1, -0.08, 0.08, -1, 634.69, 456.57)"/>
            <path class="cls-21" d="M288.76,229.12a4.14,4.14,0,1,0,4.4,3.85A4.14,4.14,0,0,0,288.76,229.12Z"/>
            <path class="cls-21"
                  d="M286.15,229.73l4.19,7.45L316,231.42c3.14-.8,4.85-8.44,3.61-11.44h0a5.32,5.32,0,0,0-7.63-2.55Z"/>
            <path class="cls-21"
                  d="M339.14,271.94l2.79-48.81a4.51,4.51,0,0,0-3.76-5.56l-22.87-.83a4.5,4.5,0,0,0-5.11,4.36l-4.68,59.33Z"/>
            <polygon class="cls-8"
                     points="317.26 271.94 322.54 288.37 320.19 390.2 310.8 390.2 305.51 280.43 306.23 271.94 317.26 271.94"/>
            <polygon class="cls-11"
                     points="317.26 271.94 322.41 292.11 326.11 292.11 359.25 390.2 366.95 390.2 343.62 285.25 339.14 271.94 317.26 271.94"/>
            <path class="cls-17"
                  d="M299.41,188.17h1a0,0,0,0,1,0,0v8.76a0,0,0,0,1,0,0h-1a3.6,3.6,0,0,1-3.6-3.6v-1.56A3.6,3.6,0,0,1,299.41,188.17Z"
                  transform="translate(60.58 456.23) rotate(-80.85)"/>
            <polygon class="cls-8"
                     points="320.98 216.94 327.68 217.19 324.95 221.26 324.95 253.68 321.02 261.95 317.41 251.98 322.44 221 320.98 216.94"/>
            <path class="cls-8"
                  d="M339.25,196a11.25,11.25,0,0,0-2.44-6,10.92,10.92,0,0,0-5-3.35,6.71,6.71,0,0,0-2.8-.37,6.73,6.73,0,0,1-3.56-.25c-1.61-.71-2.76-2.1-4.21-3a5.17,5.17,0,0,0-1.09-.51h0a5.35,5.35,0,0,0-5,.57,5.24,5.24,0,0,0-1.69,2,6.45,6.45,0,0,0-.75,2.48,8.31,8.31,0,0,0,1.24,5,9.71,9.71,0,0,0,3.41,3.27,9.82,9.82,0,0,0-.12,1.09,11,11,0,0,0,20.78,5.62A11.62,11.62,0,0,0,339.25,196Zm-23-2.08a15,15,0,0,1-1.44-1.92,7.72,7.72,0,0,1-1.35-4.48,5.68,5.68,0,0,1,2-4.15,4.32,4.32,0,0,1,1.62-.8,3.83,3.83,0,0,0-.83.52,5.68,5.68,0,0,0-1.77,4.06,9.73,9.73,0,0,0,3.09,7.87s0,.08,0,.12A11.78,11.78,0,0,1,316.21,193.93Z"/>
            <path class="cls-17" d="M334.08,202.7A2.1,2.1,0,1,0,336.5,201,2.1,2.1,0,0,0,334.08,202.7Z"/>
            <path class="cls-17"
                  d="M325.12,191a7.47,7.47,0,0,0-6.77,4l-.27,1.44-.22,1.28v.18l0,0-.61,3.57a9.27,9.27,0,0,0,7.22,10.73A9.05,9.05,0,0,0,335,204.78l.74-4.38h0S337.15,191.81,325.12,191Z"/>
            <path class="cls-21"
                  d="M326.07,202.58c-.53-.33-4.1-1-4.53-.76a1.27,1.27,0,0,0-.53,1.38,2.21,2.21,0,0,0,.95,1.24,3.55,3.55,0,0,0,3.44.28,1.94,1.94,0,0,0,1-.91A1,1,0,0,0,326.07,202.58Z"/>
            <path class="cls-8"
                  d="M327.07,191.2a17.51,17.51,0,0,1,3.56,1,8.15,8.15,0,0,1,2.37,1.37c2.25,2,.24,6.2-.53,8.41-.19.54-.42,1.18-.08,1.64a1.19,1.19,0,0,0,1.66,0,5.61,5.61,0,0,0,1-1.52A2,2,0,0,1,336.5,201l-.36-10c0-.07-6.29-.21-6.77-.23A7.44,7.44,0,0,0,327.07,191.2Z"/>
        </g>
    </g>
</svg>